<?xml version="1.0" encoding="utf-8"?><svg viewBox="0 0 28 28" xmlns="http://www.w3.org/2000/svg" xmlns:xlink="http://www.w3.org/1999/xlink"><style>:root>svg{display:none}:root>svg:target{display:block}</style><svg fill="#050505" viewBox="0 0 24 24" id="book" xmlns="http://www.w3.org/2000/svg"><path d="M8.25 8A.75.75 0 0 1 9 7.25h7a.75.75 0 0 1 0 1.5H9A.75.75 0 0 1 8.25 8ZM9 10.25a.75.75 0 0 0 0 1.5h5a.75.75 0 0 0 0-1.5H9Z"/><path fill-rule="evenodd" d="M8.5 3.25A4.75 4.75 0 0 0 3.75 8v10a3.75 3.75 0 0 0 3.75 3.75h11A1.75 1.75 0 0 0 20.25 20V5a1.75 1.75 0 0 0-1.75-1.75h-10Zm10.25 11V5a.25.25 0 0 0-.25-.25h-10A3.25 3.25 0 0 0 5.25 8v7a3.734 3.734 0 0 1 2.25-.75h11.25Zm0 1.5H7.5a2.25 2.25 0 0 0 0 4.5h11a.25.25 0 0 0 .25-.25v-4.25Z" clip-rule="evenodd"/></svg><svg fill="#d1d1d1" viewBox="0 0 24 24" id="book-dark" xmlns="http://www.w3.org/2000/svg"><path d="M8.25 8A.75.75 0 0 1 9 7.25h7a.75.75 0 0 1 0 1.5H9A.75.75 0 0 1 8.25 8ZM9 10.25a.75.75 0 0 0 0 1.5h5a.75.75 0 0 0 0-1.5H9Z"/><path fill-rule="evenodd" d="M8.5 3.25A4.75 4.75 0 0 0 3.75 8v10a3.75 3.75 0 0 0 3.75 3.75h11A1.75 1.75 0 0 0 20.25 20V5a1.75 1.75 0 0 0-1.75-1.75h-10Zm10.25 11V5a.25.25 0 0 0-.25-.25h-10A3.25 3.25 0 0 0 5.25 8v7a3.734 3.734 0 0 1 2.25-.75h11.25Zm0 1.5H7.5a2.25 2.25 0 0 0 0 4.5h11a.25.25 0 0 0 .25-.25v-4.25Z" clip-rule="evenodd"/></svg><svg fill="#050505" viewBox="0 0 24 24" id="book-mark" xmlns="http://www.w3.org/2000/svg"><path fill-rule="evenodd" d="M3.75 8A4.75 4.75 0 0 1 8.5 3.25h10c.966 0 1.75.784 1.75 1.75v15a1.75 1.75 0 0 1-1.75 1.75h-11A3.75 3.75 0 0 1 3.75 18V8Zm15-3v9.25H7.5c-.844 0-1.623.279-2.25.75V8A3.25 3.25 0 0 1 8.5 4.75h3.208a20.793 20.793 0 0 0 .071 5.97l.063.397a.75.75 0 0 0 1.292.392l1.366-1.48 1.366 1.48a.75.75 0 0 0 1.292-.392l.063-.397a20.79 20.79 0 0 0 .071-5.97H18.5a.25.25 0 0 1 .25.25Zm-2.972-.25h-2.556a19.293 19.293 0 0 0-.108 4.57l.651-.706a1 1 0 0 1 1.47 0l.651.706a19.293 19.293 0 0 0-.108-4.57Zm-8.278 11h11.25V20a.25.25 0 0 1-.25.25h-11a2.25 2.25 0 0 1 0-4.5Z" clip-rule="evenodd"/></svg><svg fill="#d1d1d1" viewBox="0 0 24 24" id="book-mark-dark" xmlns="http://www.w3.org/2000/svg"><path fill-rule="evenodd" d="M3.75 8A4.75 4.75 0 0 1 8.5 3.25h10c.966 0 1.75.784 1.75 1.75v15a1.75 1.75 0 0 1-1.75 1.75h-11A3.75 3.75 0 0 1 3.75 18V8Zm15-3v9.25H7.5c-.844 0-1.623.279-2.25.75V8A3.25 3.25 0 0 1 8.5 4.75h3.208a20.793 20.793 0 0 0 .071 5.97l.063.397a.75.75 0 0 0 1.292.392l1.366-1.48 1.366 1.48a.75.75 0 0 0 1.292-.392l.063-.397a20.79 20.79 0 0 0 .071-5.97H18.5a.25.25 0 0 1 .25.25Zm-2.972-.25h-2.556a19.293 19.293 0 0 0-.108 4.57l.651-.706a1 1 0 0 1 1.47 0l.651.706a19.293 19.293 0 0 0-.108-4.57Zm-8.278 11h11.25V20a.25.25 0 0 1-.25.25h-11a2.25 2.25 0 0 1 0-4.5Z" clip-rule="evenodd"/></svg><svg viewBox="0 0 24 24" id="clipboard-alt" xmlns="http://www.w3.org/2000/svg"><path fill-rule="evenodd" d="m15.65 4.263.813.101a3.75 3.75 0 0 1 3.287 3.721v10.49a3.641 3.641 0 0 1-3.191 3.613c-3.028.377-6.09.377-9.118 0a3.641 3.641 0 0 1-3.191-3.613V8.085a3.75 3.75 0 0 1 3.287-3.72l.813-.102A2.751 2.751 0 0 1 11 2.25h2a2.75 2.75 0 0 1 2.65 2.013Zm-7.4 1.524-.528.066A2.25 2.25 0 0 0 5.75 8.085v10.49c0 1.08.805 1.991 1.876 2.125a35.39 35.39 0 0 0 8.747 0 2.141 2.141 0 0 0 1.877-2.125V8.085a2.25 2.25 0 0 0-1.972-2.232l-.528-.066V7a.75.75 0 0 1-.75.75H9A.75.75 0 0 1 8.25 7V5.787ZM9.75 5c0-.69.56-1.25 1.25-1.25h2c.69 0 1.25.56 1.25 1.25v1.25h-4.5V5Z" clip-rule="evenodd"/><path d="M15.75 11.75A.75.75 0 0 0 15 11H9a.75.75 0 0 0 0 1.5h6a.75.75 0 0 0 .75-.75ZM14.75 14.75A.75.75 0 0 0 14 14H9a.75.75 0 0 0 0 1.5h5a.75.75 0 0 0 .75-.75Z"/></svg><svg fill="#d1d1d1" viewBox="0 0 24 24" id="clipboard-alt-dark" xmlns="http://www.w3.org/2000/svg"><path fill-rule="evenodd" d="m15.65 4.263.813.101a3.75 3.75 0 0 1 3.287 3.721v10.49a3.641 3.641 0 0 1-3.191 3.613c-3.028.377-6.09.377-9.118 0a3.641 3.641 0 0 1-3.191-3.613V8.085a3.75 3.75 0 0 1 3.287-3.72l.813-.102A2.751 2.751 0 0 1 11 2.25h2a2.75 2.75 0 0 1 2.65 2.013Zm-7.4 1.524-.528.066A2.25 2.25 0 0 0 5.75 8.085v10.49c0 1.08.805 1.991 1.876 2.125a35.39 35.39 0 0 0 8.747 0 2.141 2.141 0 0 0 1.877-2.125V8.085a2.25 2.25 0 0 0-1.972-2.232l-.528-.066V7a.75.75 0 0 1-.75.75H9A.75.75 0 0 1 8.25 7V5.787ZM9.75 5c0-.69.56-1.25 1.25-1.25h2c.69 0 1.25.56 1.25 1.25v1.25h-4.5V5Z" clip-rule="evenodd"/><path d="M15.75 11.75A.75.75 0 0 0 15 11H9a.75.75 0 0 0 0 1.5h6a.75.75 0 0 0 .75-.75ZM14.75 14.75A.75.75 0 0 0 14 14H9a.75.75 0 0 0 0 1.5h5a.75.75 0 0 0 .75-.75Z"/></svg><svg viewBox="0 0 24 24" id="logout" xmlns="http://www.w3.org/2000/svg"><path d="M12 18.25a.75.75 0 0 0 0 1.5h6A1.75 1.75 0 0 0 19.75 18V6A1.75 1.75 0 0 0 18 4.25h-6a.75.75 0 0 0 0 1.5h6a.25.25 0 0 1 .25.25v12a.25.25 0 0 1-.25.25h-6Z"/><path fill-rule="evenodd" d="M14.503 14.365c.69 0 1.25-.56 1.25-1.25v-2.24c0-.69-.56-1.25-1.25-1.25H9.89a26.723 26.723 0 0 0-.02-.22l-.054-.556a1.227 1.227 0 0 0-1.751-.988 15.059 15.059 0 0 0-4.368 3.163l-.099.104a1.253 1.253 0 0 0 0 1.734l.1.103a15.06 15.06 0 0 0 4.367 3.164 1.227 1.227 0 0 0 1.751-.988l.054-.556.02-.22h4.613Zm-5.308-1.5a.75.75 0 0 0-.748.704c-.019.29-.042.581-.07.871l-.016.162a13.562 13.562 0 0 1-3.516-2.607 13.558 13.558 0 0 1 3.516-2.607l.016.162c.028.29.051.58.07.871a.75.75 0 0 0 .748.704h5.058v1.74H9.195Z" clip-rule="evenodd"/></svg><svg fill="#d1d1d1" viewBox="0 0 24 24" id="logout-dark" xmlns="http://www.w3.org/2000/svg"><path d="M12 18.25a.75.75 0 0 0 0 1.5h6A1.75 1.75 0 0 0 19.75 18V6A1.75 1.75 0 0 0 18 4.25h-6a.75.75 0 0 0 0 1.5h6a.25.25 0 0 1 .25.25v12a.25.25 0 0 1-.25.25h-6Z"/><path fill-rule="evenodd" d="M14.503 14.365c.69 0 1.25-.56 1.25-1.25v-2.24c0-.69-.56-1.25-1.25-1.25H9.89a26.723 26.723 0 0 0-.02-.22l-.054-.556a1.227 1.227 0 0 0-1.751-.988 15.059 15.059 0 0 0-4.368 3.163l-.099.104a1.253 1.253 0 0 0 0 1.734l.1.103a15.06 15.06 0 0 0 4.367 3.164 1.227 1.227 0 0 0 1.751-.988l.054-.556.02-.22h4.613Zm-5.308-1.5a.75.75 0 0 0-.748.704c-.019.29-.042.581-.07.871l-.016.162a13.562 13.562 0 0 1-3.516-2.607 13.558 13.558 0 0 1 3.516-2.607l.016.162c.028.29.051.58.07.871a.75.75 0 0 0 .748.704h5.058v1.74H9.195Z" clip-rule="evenodd"/></svg><svg viewBox="0 0 24 24" id="moon" xmlns="http://www.w3.org/2000/svg"><path fill-rule="evenodd" d="M11.486 4.768a7.25 7.25 0 1 0 7.399 9.51 6.25 6.25 0 0 1-7.398-9.51ZM3.25 12a8.75 8.75 0 0 1 10.074-8.65.75.75 0 0 1 .336 1.342 4.75 4.75 0 1 0 5.83 7.499.75.75 0 0 1 1.22.654A8.751 8.751 0 0 1 3.25 12Z" clip-rule="evenodd"/></svg><svg fill="#d6d6d6" viewBox="0 0 24 24" id="moon-dark" xmlns="http://www.w3.org/2000/svg"><path fill-rule="evenodd" d="M11.486 4.768a7.25 7.25 0 1 0 7.399 9.51 6.25 6.25 0 0 1-7.398-9.51ZM3.25 12a8.75 8.75 0 0 1 10.074-8.65.75.75 0 0 1 .336 1.342 4.75 4.75 0 1 0 5.83 7.499.75.75 0 0 1 1.22.654A8.751 8.751 0 0 1 3.25 12Z" clip-rule="evenodd"/></svg><svg viewBox="0 0 24 24" id="sun" xmlns="http://www.w3.org/2000/svg"><path d="M12 1.25a.75.75 0 0 1 .75.75v1a.75.75 0 0 1-1.5 0V2a.75.75 0 0 1 .75-.75Z"/><path fill-rule="evenodd" d="M6.25 12a5.75 5.75 0 1 1 11.5 0 5.75 5.75 0 0 1-11.5 0ZM12 7.75a4.25 4.25 0 1 0 0 8.5 4.25 4.25 0 0 0 0-8.5Z" clip-rule="evenodd"/><path d="M5.46 4.399a.75.75 0 0 0-1.061 1.06l.707.707a.75.75 0 1 0 1.06-1.06l-.707-.707ZM22.75 12a.75.75 0 0 1-.75.75h-1a.75.75 0 0 1 0-1.5h1a.75.75 0 0 1 .75.75ZM19.601 5.46a.75.75 0 1 0-1.06-1.061l-.707.707a.75.75 0 1 0 1.06 1.06l.707-.707ZM12 20.25a.75.75 0 0 1 .75.75v1a.75.75 0 0 1-1.5 0v-1a.75.75 0 0 1 .75-.75ZM18.894 17.834a.75.75 0 1 0-1.06 1.06l.707.707a.75.75 0 1 0 1.06-1.06l-.707-.707ZM3.75 12a.75.75 0 0 1-.75.75H2a.75.75 0 0 1 0-1.5h1a.75.75 0 0 1 .75.75ZM6.166 18.894a.75.75 0 0 0-1.06-1.06l-.707.707a.75.75 0 0 0 1.06 1.06l.707-.707Z"/></svg><svg fill="#d6d6d6" viewBox="0 0 24 24" id="sun-dark" xmlns="http://www.w3.org/2000/svg"><path d="M12 1.25a.75.75 0 0 1 .75.75v1a.75.75 0 0 1-1.5 0V2a.75.75 0 0 1 .75-.75Z"/><path fill-rule="evenodd" d="M6.25 12a5.75 5.75 0 1 1 11.5 0 5.75 5.75 0 0 1-11.5 0ZM12 7.75a4.25 4.25 0 1 0 0 8.5 4.25 4.25 0 0 0 0-8.5Z" clip-rule="evenodd"/><path d="M5.46 4.399a.75.75 0 0 0-1.061 1.06l.707.707a.75.75 0 1 0 1.06-1.06l-.707-.707ZM22.75 12a.75.75 0 0 1-.75.75h-1a.75.75 0 0 1 0-1.5h1a.75.75 0 0 1 .75.75ZM19.601 5.46a.75.75 0 1 0-1.06-1.061l-.707.707a.75.75 0 1 0 1.06 1.06l.707-.707ZM12 20.25a.75.75 0 0 1 .75.75v1a.75.75 0 0 1-1.5 0v-1a.75.75 0 0 1 .75-.75ZM18.894 17.834a.75.75 0 1 0-1.06 1.06l.707.707a.75.75 0 1 0 1.06-1.06l-.707-.707ZM3.75 12a.75.75 0 0 1-.75.75H2a.75.75 0 0 1 0-1.5h1a.75.75 0 0 1 .75.75ZM6.166 18.894a.75.75 0 0 0-1.06-1.06l-.707.707a.75.75 0 0 0 1.06 1.06l.707-.707Z"/></svg></svg>